<svg xmlns="http://www.w3.org/2000/svg" width="13" height="24" viewBox="0 0 13 24">
  <path id="fb" class="cls-1" d="M1127.51,7715h-3.12c-3.5,0-5.76,2.32-5.76,5.91v2.72h-3.14a0.491,0.491,0,0,0-.49.49v3.94a0.484,0.484,0,0,0,.49.49h3.14v9.96a0.484,0.484,0,0,0,.49.49h4.09a0.491,0.491,0,0,0,.49-0.49v-9.96h3.66a0.484,0.484,0,0,0,.49-0.49v-3.94a0.518,0.518,0,0,0-.14-0.35,0.5,0.5,0,0,0-.35-0.14h-3.66v-2.31c0-1.11.26-1.67,1.71-1.67h2.1a0.491,0.491,0,0,0,.49-0.49v-3.67A0.5,0.5,0,0,0,1127.51,7715Z" transform="translate(-1115 -7715)"/>
</svg>
