<svg xmlns="http://www.w3.org/2000/svg" width="30" height="24" viewBox="0 0 30 24">
  <path id="tw" class="cls-1" d="M1177.17,7715.44a12.3,12.3,0,0,1-3.91,1.47,6.17,6.17,0,0,0-4.49-1.91,6.1,6.1,0,0,0-6.15,6.06,6.275,6.275,0,0,0,.15,1.38,17.581,17.581,0,0,1-12.68-6.33,5.92,5.92,0,0,0-.83,3.04,6.059,6.059,0,0,0,2.73,5.05,6.369,6.369,0,0,1-2.78-.76v0.07a6.1,6.1,0,0,0,4.93,5.95,6.6,6.6,0,0,1-1.62.21,6.336,6.336,0,0,1-1.16-.11,6.16,6.16,0,0,0,5.75,4.21,12.485,12.485,0,0,1-7.64,2.59,14.17,14.17,0,0,1-1.47-.08,17.6,17.6,0,0,0,9.43,2.72,17.247,17.247,0,0,0,17.51-17.24l-0.02-.79a12.216,12.216,0,0,0,3.08-3.13,12.281,12.281,0,0,1-3.53.95A6.1,6.1,0,0,0,1177.17,7715.44Z" transform="translate(-1148 -7715)"/>
</svg>
